<mxfile host="app.diagrams.net" agent="Mozilla/5.0 (Windows NT 10.0; Win64; x64) AppleWebKit/537.36 (KHTML, like Gecko) Chrome/133.0.0.0 Safari/537.36" version="26.1.0">
  <diagram name="Página-1" id="zskZUPrWBI-Y4OS8JdYG">
    <mxGraphModel dx="1154" dy="4009" grid="1" gridSize="10" guides="1" tooltips="1" connect="1" arrows="1" fold="1" page="1" pageScale="1" pageWidth="827" pageHeight="1169" math="0" shadow="0">
      <root>
        <mxCell id="0" />
        <mxCell id="1" parent="0" />
        <mxCell id="0qAR81gEFp_fkfjN5Me6-1" value="secretaria escolar" style="shape=umlActor;verticalLabelPosition=bottom;verticalAlign=top;html=1;outlineConnect=0;" parent="1" vertex="1">
          <mxGeometry x="225" y="-3310" width="60" height="90" as="geometry" />
        </mxCell>
        <mxCell id="0qAR81gEFp_fkfjN5Me6-2" value="aluno" style="shape=umlActor;verticalLabelPosition=bottom;verticalAlign=top;html=1;outlineConnect=0;" parent="1" vertex="1">
          <mxGeometry x="635" y="-3310" width="60" height="90" as="geometry" />
        </mxCell>
        <mxCell id="0qAR81gEFp_fkfjN5Me6-4" value="professor" style="shape=umlActor;verticalLabelPosition=bottom;verticalAlign=top;html=1;outlineConnect=0;" parent="1" vertex="1">
          <mxGeometry x="545" y="-3310" width="60" height="90" as="geometry" />
        </mxCell>
        <mxCell id="0qAR81gEFp_fkfjN5Me6-18" value="" style="edgeStyle=orthogonalEdgeStyle;rounded=0;orthogonalLoop=1;jettySize=auto;html=1;" parent="1" source="0qAR81gEFp_fkfjN5Me6-5" target="0qAR81gEFp_fkfjN5Me6-6" edge="1">
          <mxGeometry relative="1" as="geometry">
            <Array as="points">
              <mxPoint x="95" y="-3190" />
              <mxPoint x="95" y="-3190" />
            </Array>
          </mxGeometry>
        </mxCell>
        <mxCell id="0qAR81gEFp_fkfjN5Me6-5" value="cadastrar aluno" style="ellipse;whiteSpace=wrap;html=1;" parent="1" vertex="1">
          <mxGeometry x="40" y="-3280" width="110" height="50" as="geometry" />
        </mxCell>
        <mxCell id="0qAR81gEFp_fkfjN5Me6-13" style="edgeStyle=orthogonalEdgeStyle;rounded=0;orthogonalLoop=1;jettySize=auto;html=1;" parent="1" source="0qAR81gEFp_fkfjN5Me6-6" edge="1">
          <mxGeometry relative="1" as="geometry">
            <mxPoint x="255" y="-3180" as="targetPoint" />
            <Array as="points">
              <mxPoint x="255" y="-3140" />
            </Array>
          </mxGeometry>
        </mxCell>
        <mxCell id="0qAR81gEFp_fkfjN5Me6-6" value="cadastrar professor" style="ellipse;whiteSpace=wrap;html=1;" parent="1" vertex="1">
          <mxGeometry x="40" y="-3180" width="120" height="60" as="geometry" />
        </mxCell>
        <mxCell id="0qAR81gEFp_fkfjN5Me6-19" style="edgeStyle=orthogonalEdgeStyle;rounded=0;orthogonalLoop=1;jettySize=auto;html=1;" parent="1" source="0qAR81gEFp_fkfjN5Me6-7" target="0qAR81gEFp_fkfjN5Me6-10" edge="1">
          <mxGeometry relative="1" as="geometry" />
        </mxCell>
        <mxCell id="0qAR81gEFp_fkfjN5Me6-7" value="cadastrar notas" style="ellipse;whiteSpace=wrap;html=1;" parent="1" vertex="1">
          <mxGeometry x="285" y="-3440" width="110" height="60" as="geometry" />
        </mxCell>
        <mxCell id="0qAR81gEFp_fkfjN5Me6-22" style="edgeStyle=orthogonalEdgeStyle;rounded=0;orthogonalLoop=1;jettySize=auto;html=1;" parent="1" source="0qAR81gEFp_fkfjN5Me6-8" edge="1">
          <mxGeometry relative="1" as="geometry">
            <mxPoint x="679.9999999999998" y="-3180" as="targetPoint" />
          </mxGeometry>
        </mxCell>
        <mxCell id="0qAR81gEFp_fkfjN5Me6-8" value="consultar&amp;nbsp; notas" style="ellipse;whiteSpace=wrap;html=1;" parent="1" vertex="1">
          <mxGeometry x="625" y="-3120" width="110" height="60" as="geometry" />
        </mxCell>
        <mxCell id="0qAR81gEFp_fkfjN5Me6-20" style="edgeStyle=orthogonalEdgeStyle;rounded=0;orthogonalLoop=1;jettySize=auto;html=1;" parent="1" source="0qAR81gEFp_fkfjN5Me6-10" edge="1">
          <mxGeometry relative="1" as="geometry">
            <mxPoint x="525" y="-3230" as="targetPoint" />
            <Array as="points">
              <mxPoint x="505" y="-3230" />
            </Array>
          </mxGeometry>
        </mxCell>
        <mxCell id="0qAR81gEFp_fkfjN5Me6-10" value="cadastrar frequência&amp;nbsp;" style="ellipse;whiteSpace=wrap;html=1;" parent="1" vertex="1">
          <mxGeometry x="435" y="-3440" width="120" height="60" as="geometry" />
        </mxCell>
        <mxCell id="0qAR81gEFp_fkfjN5Me6-21" style="edgeStyle=orthogonalEdgeStyle;rounded=0;orthogonalLoop=1;jettySize=auto;html=1;" parent="1" source="0qAR81gEFp_fkfjN5Me6-12" target="0qAR81gEFp_fkfjN5Me6-8" edge="1">
          <mxGeometry relative="1" as="geometry" />
        </mxCell>
        <mxCell id="0qAR81gEFp_fkfjN5Me6-12" value="consultar frequência" style="ellipse;whiteSpace=wrap;html=1;" parent="1" vertex="1">
          <mxGeometry x="475" y="-3120" width="110" height="60" as="geometry" />
        </mxCell>
        <mxCell id="Qw4fgRjoKcUAwfFuTFJa-32" value="Orgchart" style="swimlane;startSize=20;horizontal=1;containerType=tree;newEdgeStyle={&quot;edgeStyle&quot;:&quot;elbowEdgeStyle&quot;,&quot;startArrow&quot;:&quot;none&quot;,&quot;endArrow&quot;:&quot;none&quot;};" vertex="1" parent="1">
          <mxGeometry x="70" y="-3000" width="610" height="410" as="geometry" />
        </mxCell>
        <UserObject label="sistema escolar" treeRoot="1" id="Qw4fgRjoKcUAwfFuTFJa-35">
          <mxCell style="whiteSpace=wrap;html=1;align=center;treeFolding=1;treeMoving=1;newEdgeStyle={&quot;edgeStyle&quot;:&quot;elbowEdgeStyle&quot;,&quot;startArrow&quot;:&quot;none&quot;,&quot;endArrow&quot;:&quot;none&quot;};" vertex="1" parent="Qw4fgRjoKcUAwfFuTFJa-32">
            <mxGeometry x="232.5" y="30" width="120" height="60" as="geometry" />
          </mxCell>
        </UserObject>
        <mxCell id="Qw4fgRjoKcUAwfFuTFJa-38" value="" style="edgeStyle=elbowEdgeStyle;rounded=0;orthogonalLoop=1;jettySize=auto;html=1;elbow=vertical;startArrow=none;endArrow=none;" edge="1" source="Qw4fgRjoKcUAwfFuTFJa-35" target="Qw4fgRjoKcUAwfFuTFJa-39" parent="Qw4fgRjoKcUAwfFuTFJa-32">
          <mxGeometry relative="1" as="geometry" />
        </mxCell>
        <UserObject label="cadastrar aluno" treeRoot="1" id="Qw4fgRjoKcUAwfFuTFJa-39">
          <mxCell style="whiteSpace=wrap;html=1;align=center;treeFolding=1;treeMoving=1;newEdgeStyle={&quot;edgeStyle&quot;:&quot;elbowEdgeStyle&quot;,&quot;startArrow&quot;:&quot;none&quot;,&quot;endArrow&quot;:&quot;none&quot;};" vertex="1" parent="Qw4fgRjoKcUAwfFuTFJa-32">
            <mxGeometry x="85" y="138" width="120" height="60" as="geometry" />
          </mxCell>
        </UserObject>
        <mxCell id="Qw4fgRjoKcUAwfFuTFJa-40" value="" style="edgeStyle=elbowEdgeStyle;rounded=0;orthogonalLoop=1;jettySize=auto;html=1;elbow=vertical;startArrow=none;endArrow=none;" edge="1" target="Qw4fgRjoKcUAwfFuTFJa-41" source="Qw4fgRjoKcUAwfFuTFJa-35" parent="Qw4fgRjoKcUAwfFuTFJa-32">
          <mxGeometry relative="1" as="geometry">
            <mxPoint x="370" y="-2892" as="sourcePoint" />
          </mxGeometry>
        </mxCell>
        <UserObject label="cadastrar professor" treeRoot="1" id="Qw4fgRjoKcUAwfFuTFJa-41">
          <mxCell style="whiteSpace=wrap;html=1;align=center;treeFolding=1;treeMoving=1;newEdgeStyle={&quot;edgeStyle&quot;:&quot;elbowEdgeStyle&quot;,&quot;startArrow&quot;:&quot;none&quot;,&quot;endArrow&quot;:&quot;none&quot;};" vertex="1" parent="Qw4fgRjoKcUAwfFuTFJa-32">
            <mxGeometry x="400" y="138" width="120" height="60" as="geometry" />
          </mxCell>
        </UserObject>
        <mxCell id="Qw4fgRjoKcUAwfFuTFJa-48" value="" style="edgeStyle=elbowEdgeStyle;rounded=0;orthogonalLoop=1;jettySize=auto;html=1;elbow=vertical;startArrow=none;endArrow=none;" edge="1" target="Qw4fgRjoKcUAwfFuTFJa-49" source="Qw4fgRjoKcUAwfFuTFJa-41" parent="Qw4fgRjoKcUAwfFuTFJa-32">
          <mxGeometry relative="1" as="geometry">
            <mxPoint x="370" y="-2892" as="sourcePoint" />
          </mxGeometry>
        </mxCell>
        <UserObject label="cadastrar notas" treeRoot="1" id="Qw4fgRjoKcUAwfFuTFJa-49">
          <mxCell style="whiteSpace=wrap;html=1;align=center;treeFolding=1;treeMoving=1;newEdgeStyle={&quot;edgeStyle&quot;:&quot;elbowEdgeStyle&quot;,&quot;startArrow&quot;:&quot;none&quot;,&quot;endArrow&quot;:&quot;none&quot;};" vertex="1" parent="Qw4fgRjoKcUAwfFuTFJa-32">
            <mxGeometry x="320" y="250" width="120" height="60" as="geometry" />
          </mxCell>
        </UserObject>
        <mxCell id="Qw4fgRjoKcUAwfFuTFJa-51" value="" style="edgeStyle=elbowEdgeStyle;rounded=0;orthogonalLoop=1;jettySize=auto;html=1;elbow=vertical;startArrow=none;endArrow=none;" edge="1" target="Qw4fgRjoKcUAwfFuTFJa-52" source="Qw4fgRjoKcUAwfFuTFJa-41" parent="Qw4fgRjoKcUAwfFuTFJa-32">
          <mxGeometry relative="1" as="geometry">
            <mxPoint x="370" y="-2892" as="sourcePoint" />
          </mxGeometry>
        </mxCell>
        <UserObject label="cadastrar frequência&amp;nbsp;" treeRoot="1" id="Qw4fgRjoKcUAwfFuTFJa-52">
          <mxCell style="whiteSpace=wrap;html=1;align=center;treeFolding=1;treeMoving=1;newEdgeStyle={&quot;edgeStyle&quot;:&quot;elbowEdgeStyle&quot;,&quot;startArrow&quot;:&quot;none&quot;,&quot;endArrow&quot;:&quot;none&quot;};" vertex="1" parent="Qw4fgRjoKcUAwfFuTFJa-32">
            <mxGeometry x="479.9999999999998" y="250" width="120" height="60" as="geometry" />
          </mxCell>
        </UserObject>
        <mxCell id="Qw4fgRjoKcUAwfFuTFJa-54" value="" style="edgeStyle=elbowEdgeStyle;rounded=0;orthogonalLoop=1;jettySize=auto;html=1;elbow=vertical;startArrow=none;endArrow=none;" edge="1" target="Qw4fgRjoKcUAwfFuTFJa-55" source="Qw4fgRjoKcUAwfFuTFJa-39" parent="Qw4fgRjoKcUAwfFuTFJa-32">
          <mxGeometry relative="1" as="geometry">
            <mxPoint x="310" y="-2892" as="sourcePoint" />
          </mxGeometry>
        </mxCell>
        <UserObject label="consultar&amp;nbsp; notas" treeRoot="1" id="Qw4fgRjoKcUAwfFuTFJa-55">
          <mxCell style="whiteSpace=wrap;html=1;align=center;treeFolding=1;treeMoving=1;newEdgeStyle={&quot;edgeStyle&quot;:&quot;elbowEdgeStyle&quot;,&quot;startArrow&quot;:&quot;none&quot;,&quot;endArrow&quot;:&quot;none&quot;};" vertex="1" parent="Qw4fgRjoKcUAwfFuTFJa-32">
            <mxGeometry y="250" width="120" height="60" as="geometry" />
          </mxCell>
        </UserObject>
        <mxCell id="Qw4fgRjoKcUAwfFuTFJa-56" value="" style="edgeStyle=elbowEdgeStyle;rounded=0;orthogonalLoop=1;jettySize=auto;html=1;elbow=vertical;startArrow=none;endArrow=none;" edge="1" target="Qw4fgRjoKcUAwfFuTFJa-57" source="Qw4fgRjoKcUAwfFuTFJa-39" parent="Qw4fgRjoKcUAwfFuTFJa-32">
          <mxGeometry relative="1" as="geometry">
            <mxPoint x="342" y="-2910" as="sourcePoint" />
          </mxGeometry>
        </mxCell>
        <UserObject label="consultar frequência" treeRoot="1" id="Qw4fgRjoKcUAwfFuTFJa-57">
          <mxCell style="whiteSpace=wrap;html=1;align=center;treeFolding=1;treeMoving=1;newEdgeStyle={&quot;edgeStyle&quot;:&quot;elbowEdgeStyle&quot;,&quot;startArrow&quot;:&quot;none&quot;,&quot;endArrow&quot;:&quot;none&quot;};" vertex="1" parent="Qw4fgRjoKcUAwfFuTFJa-32">
            <mxGeometry x="140" y="250" width="120" height="60" as="geometry" />
          </mxCell>
        </UserObject>
      </root>
    </mxGraphModel>
  </diagram>
</mxfile>
